<?xml version="1.0" encoding="UTF-8" standalone="no"?>
<svg
   width="139.467"
   height="31.797"
   viewBox="0 0 139.467 31.797"
   version="1.1"
   id="svg5"
   sodipodi:docname="logo-dark.svg"
   inkscape:version="1.2.2 (b0a8486541, 2022-12-01)"
   xmlns:inkscape="http://www.inkscape.org/namespaces/inkscape"
   xmlns:sodipodi="http://sodipodi.sourceforge.net/DTD/sodipodi-0.dtd"
   xmlns="http://www.w3.org/2000/svg"
   xmlns:svg="http://www.w3.org/2000/svg">
  <defs
     id="defs9">
    <rect
       x="21.024295"
       y="5.4246909"
       width="0.48890907"
       height="6.8121746"
       id="rect379" />
  </defs>
  <sodipodi:namedview
     id="namedview7"
     pagecolor="#ffffff"
     bordercolor="#000000"
     borderopacity="0.25"
     inkscape:showpageshadow="2"
     inkscape:pageopacity="0.0"
     inkscape:pagecheckerboard="0"
     inkscape:deskcolor="#d1d1d1"
     showgrid="false"
     inkscape:zoom="11.331573"
     inkscape:cx="35.299601"
     inkscape:cy="19.547154"
     inkscape:window-width="1362"
     inkscape:window-height="724"
     inkscape:window-x="0"
     inkscape:window-y="0"
     inkscape:window-maximized="1"
     inkscape:current-layer="Logo_Dark" />
  <g
     id="Logo_Dark"
     data-name="Logo Dark"
     transform="translate(-38 -30.203)">
    <text
       xml:space="preserve"
       style="font-size:21.1901px;white-space:pre;inline-size:60.805;display:inline;fill:#000000"
       x="58.344299"
       y="47.771927"
       id="text319"
       transform="matrix(1.5431196,0,0,1.4778606,-6.9665077,-14.328879)"><tspan
         x="58.344299"
         y="47.771927"
         id="tspan5519"><tspan
           style="font-weight:bold;font-size:19.4243px;font-family:'Noto Sans';-inkscape-font-specification:'Noto Sans Bold'"
           id="tspan5517">SiVeO</tspan></tspan></text>
    <text
       xml:space="preserve"
       transform="translate(38,30.203)"
       id="text377"
       style="font-size:5.33333px;white-space:pre;shape-inside:url(#rect379);display:inline;fill:#000000" />
    <text
       xml:space="preserve"
       style="font-size:5.33333px;fill:#000000"
       x="29.414425"
       y="52.010872"
       id="text385"><tspan
         sodipodi:role="line"
         id="tspan383"
         x="29.414425"
         y="52.010872"> </tspan></text>
    <path
       style="fill:#8231d3;fill-opacity:1;stroke:#8231d3;stroke-width:1.09223;stroke-opacity:1"
       d="m 43.714882,35.326503 5.877317,0.65586 1.489745,17.810406 26.843626,-0.01473 1.540214,-16.440599 -24.054139,-0.535348 0.724848,2.461446 21.424092,-0.09322 -1.505148,12.891069 -23.47522,0.01288 -1.779224,-18.055313 -7.329518,-1.629388 0.230223,2.812817 z"
       id="path684"
       sodipodi:nodetypes="cccccccccccccc" />
    <path
       sodipodi:type="star"
       style="fill:#8231d3;fill-opacity:1;stroke:#8231d3;stroke-opacity:1"
       id="path686"
       inkscape:flatsided="true"
       sodipodi:sides="14"
       sodipodi:cx="13.667313"
       sodipodi:cy="27.33919"
       sodipodi:r1="1.3213103"
       sodipodi:r2="1.2566408"
       sodipodi:arg1="0.67025352"
       sodipodi:arg2="0.894653"
       inkscape:rounded="0.5"
       inkscape:randomized="0"
       d="m 14.702776,28.159967 c -0.18264,0.230413 -0.19414,0.239639 -0.458665,0.367988 -0.264525,0.12835 -0.278889,0.131673 -0.572907,0.132539 -0.294018,8.66e-4 -0.308401,-0.0024 -0.573678,-0.129162 -0.265277,-0.126789 -0.276831,-0.135948 -0.460825,-0.36528 -0.183994,-0.229333 -0.19043,-0.242597 -0.256699,-0.529051 -0.06627,-0.286454 -0.06631,-0.301197 -0.0017,-0.588036 0.06458,-0.286839 0.07094,-0.300141 0.253579,-0.530553 0.18264,-0.230412 0.19414,-0.239639 0.458665,-0.367988 0.264526,-0.12835 0.27889,-0.131673 0.572907,-0.132539 0.294018,-8.66e-4 0.308402,0.0024 0.573678,0.129162 0.265277,0.126789 0.276831,0.135948 0.460825,0.36528 0.183994,0.229333 0.19043,0.242597 0.256699,0.529051 0.06627,0.286454 0.06631,0.301197 0.0017,0.588036 -0.06458,0.286839 -0.07094,0.300141 -0.253579,0.530553 z"
       transform="matrix(1.4860798,0,0,1.5129878,34.556047,16.558015)" />
    <path
       sodipodi:type="star"
       style="fill:#8231d3;fill-opacity:1;stroke:#8231d3;stroke-opacity:1"
       id="path686-3"
       inkscape:flatsided="true"
       sodipodi:sides="14"
       sodipodi:cx="13.667313"
       sodipodi:cy="27.33919"
       sodipodi:r1="1.3213103"
       sodipodi:r2="1.2566408"
       sodipodi:arg1="0.67025352"
       sodipodi:arg2="0.894653"
       inkscape:rounded="0.5"
       inkscape:randomized="0"
       d="m 14.702776,28.159967 c -0.18264,0.230413 -0.19414,0.239639 -0.458665,0.367988 -0.264525,0.12835 -0.278889,0.131673 -0.572907,0.132539 -0.294018,8.66e-4 -0.308401,-0.0024 -0.573678,-0.129162 -0.265277,-0.126789 -0.276831,-0.135948 -0.460825,-0.36528 -0.183994,-0.229333 -0.19043,-0.242597 -0.256699,-0.529051 -0.06627,-0.286454 -0.06631,-0.301197 -0.0017,-0.588036 0.06458,-0.286839 0.07094,-0.300141 0.253579,-0.530553 0.18264,-0.230412 0.19414,-0.239639 0.458665,-0.367988 0.264526,-0.12835 0.27889,-0.131673 0.572907,-0.132539 0.294018,-8.66e-4 0.308402,0.0024 0.573678,0.129162 0.265277,0.126789 0.276831,0.135948 0.460825,0.36528 0.183994,0.229333 0.19043,0.242597 0.256699,0.529051 0.06627,0.286454 0.06631,0.301197 0.0017,0.588036 -0.06458,0.286839 -0.07094,0.300141 -0.253579,0.530553 z"
       transform="matrix(1.4860798,0,0,1.5129878,52.256214,16.688892)" />
  </g>
</svg>
